<svg xmlns="http://www.w3.org/2000/svg" width="15.999" height="9.159" viewBox="0 0 15.999 9.159">
  <g id="グループ_22" data-name="グループ 22" transform="translate(0 0)">
    <path id="パス_6" data-name="パス 6" d="M8.819,8.819h0a1.16,1.16,0,0,1-1.64,0L.34,1.978A1.159,1.159,0,0,1,1.978.34l6.841,6.84a1.16,1.16,0,0,1,0,1.64" transform="translate(0 0)" fill="#333"/>
    <path id="パス_7" data-name="パス 7" d="M5.613,8.819h0a1.157,1.157,0,0,1,0-1.64L12.453.34a1.159,1.159,0,0,1,1.639,1.639L7.253,8.819a1.16,1.16,0,0,1-1.64,0" transform="translate(1.567 0)" fill="#333"/>
  </g>
</svg>
