<svg xmlns="http://www.w3.org/2000/svg" width="93.959" height="34.999" viewBox="0 0 93.959 34.999">
  <g id="合体_4" data-name="合体 4" transform="translate(7045.663 -180.999)" fill="none">
    <path d="M-7023,216a17.5,17.5,0,0,1-17.5-17.5q0-.866.083-1.712l-4.61-5.951a3,3,0,0,1,2.371-4.837h7.408A17.443,17.443,0,0,1-7023,181h53.8a17.5,17.5,0,0,1,17.5,17.5,17.5,17.5,0,0,1-17.5,17.5Z" stroke="none"/>
    <path d="M -6969.20263671875 211.9987945556641 C -6965.5966796875 211.9987945556641 -6962.20703125 210.5946960449219 -6959.6572265625 208.0451507568359 C -6957.10791015625 205.4955902099609 -6955.70361328125 202.105712890625 -6955.70361328125 198.4999542236328 C -6955.70361328125 194.8939819335938 -6957.10791015625 191.5037078857422 -6959.65771484375 188.9536895751953 C -6962.20703125 186.4036865234375 -6965.59716796875 184.9993438720703 -6969.20263671875 184.9993438720703 L -7023.00048828125 184.9993438720703 C -7026.55517578125 184.9993438720703 -7029.91064453125 186.3694763183594 -7032.44921875 188.8573150634766 L -7033.61572265625 190.0005340576172 L -7040.61669921875 190.0005340576172 L -7036.28369140625 195.5940246582031 L -7036.43701171875 197.1747436523438 C -7036.47998046875 197.6139678955078 -7036.50146484375 198.0598449707031 -7036.50146484375 198.4999542236328 C -7036.50146484375 202.1055450439453 -7035.09716796875 205.495361328125 -7032.54736328125 208.0449676513672 C -7029.9970703125 210.5946197509766 -7026.6064453125 211.9987945556641 -7023.00048828125 211.9987945556641 L -6969.20263671875 211.9987945556641 M -6969.20263671875 215.9987945556641 L -7023.00048828125 215.9987945556641 C -7032.66552734375 215.9987945556641 -7040.50146484375 208.16455078125 -7040.50146484375 198.4999542236328 C -7040.50146484375 197.9224548339844 -7040.47314453125 197.3512573242188 -7040.41845703125 196.7881011962891 L -7045.0283203125 190.8372497558594 C -7046.556640625 188.8654174804688 -7045.150390625 186.0005340576172 -7042.6572265625 186.0005340576172 L -7035.2490234375 186.0005340576172 C -7032.09228515625 182.9067840576172 -7027.76953125 180.9993438720703 -7023.00048828125 180.9993438720703 L -6969.20263671875 180.9993438720703 C -6959.5380859375 180.9993438720703 -6951.70361328125 188.8353576660156 -6951.70361328125 198.4999542236328 C -6951.70361328125 208.16455078125 -6959.5380859375 215.9987945556641 -6969.20263671875 215.9987945556641 Z" stroke="none" fill="#fff"/>
  </g>
</svg>
