<svg xmlns="http://www.w3.org/2000/svg" width="526.92" height="526.92" viewBox="0 0 526.92 526.92">
  <g id="グループ_24" data-name="グループ 24" transform="translate(-5128 -1069)">
    <path id="パス_8" data-name="パス 8" d="M526.92,263.46C526.92,117.96,408.97,0,263.46,0S0,117.96,0,263.46A263.028,263.028,0,0,0,103.88,473.09c23.72-67.65,86.21-115.97,159.58-115.97s135.86,48.32,159.58,115.97A263.028,263.028,0,0,0,526.92,263.46Z" transform="translate(5128 1069)" fill="#c0d2d8"/>
    <path id="パス_9" data-name="パス 9" d="M263.46,357.12c-73.37,0-135.86,48.32-159.58,115.97a263.454,263.454,0,0,0,319.16,0c-23.72-67.65-86.21-115.97-159.58-115.97Z" transform="translate(5128 1069)" fill="#fff"/>
    <ellipse id="楕円形_14" data-name="楕円形 14" cx="134.63" cy="119.37" rx="134.63" ry="119.37" transform="translate(5256.83 1166.56)" fill="#fff"/>
    <rect id="長方形_89" data-name="長方形 89" width="28.23" height="70.57" rx="14.11" transform="translate(5315.34 1285.93)" fill="#c0d2d8"/>
    <rect id="長方形_90" data-name="長方形 90" width="28.23" height="70.57" rx="14.11" transform="translate(5439.35 1285.93)" fill="#c0d2d8"/>
  </g>
</svg>
